<?xml version="1.0" encoding="UTF-8" standalone="no"?>
<!-- Created with Inkscape (http://www.inkscape.org/) -->

<svg
   width="140.05278mm"
   height="264.30112mm"
   viewBox="0 0 140.05278 264.30112"
   version="1.1"
    id="display" class="display-1"  >
  <sodipodi:namedview
     id="namedview1"
     pagecolor="#ffffff"
     bordercolor="#000000"
     borderopacity="0.25"
     inkscape:showpageshadow="2"
     inkscape:pageopacity="0.0"
     inkscape:pagecheckerboard="0"
     inkscape:deskcolor="#d1d1d1"
     inkscape:document-units="mm"
     inkscape:zoom="0.7349537"
     inkscape:cx="395.26299"
     inkscape:cy="402.06614"
     inkscape:window-width="1920"
     inkscape:window-height="1025"
     inkscape:window-x="0"
     inkscape:window-y="27"
     inkscape:window-maximized="1"
     inkscape:current-layer="layer1" />
  <defs
     id="defs1" />
  <g
     inkscape:label="Layer 1"
     inkscape:groupmode="layer"
     id="layer1"
     transform="translate(-0.4414033,-0.63520324)">
    <g
       transform="matrix(0.03527778,0,0,-0.03527778,-71.348879,284.33911)"
       fill="#000000"
       stroke="none"
       id="g34">
      <path class="seg1"
         d="m 2038,7505 c -2,-293 0,-531 3,-527 3,4 16,32 28,62 59,142 183,337 306,481 164,192 408,374 645,480 l 85,39 h -532 -533 z"
         id="path1" />
      <path class="seg2"
         d="m 3529,8025 c -495,-78 -938,-365 -1211,-785 -78,-119 -160,-290 -193,-397 l -6,-23 h 578 579 l 257,593 c 141,325 259,600 263,610 6,15 -2,17 -87,16 -52,-1 -133,-7 -180,-14 z"
         id="path2" />
      <path class="seg3"
         d="m 3921,7998 c -10,-23 -123,-283 -250,-577 -127,-293 -238,-549 -246,-567 l -14,-34 625,2 626,3 29,68 29,69 v 509 508 l -42,12 c -126,34 -202,41 -465,46 l -273,5 z"
         id="path3" />
      <path class="seg4"
         d="m 5030,7997 c 402,-183 754,-536 931,-935 20,-45 38,-84 40,-87 2,-2 3,237 1,531 l -2,534 h -533 -532 z"
         id="path4" />
      <path class="seg5"
         d="m 4850,7597 v -342 l 125,280 c 69,153 125,282 125,286 0,6 -139,73 -212,103 l -38,15 z"
         id="path5" />
      <path class="seg6"
         d="m 5028,7349 c -171,-384 -178,-403 -178,-465 v -64 h 536 535 l -6,23 c -38,124 -141,328 -233,457 -86,121 -250,292 -367,380 -50,39 -95,70 -101,70 -5,0 -89,-180 -186,-401 z"
         id="path6" />
      <path class="seg7"
         d="m 2080,6676 c -5,-14 -16,-72 -24,-129 -22,-143 -23,-1113 -2,-1287 20,-159 49,-296 91,-424 37,-109 123,-306 134,-306 3,0 59,123 123,273 64,149 275,636 468,1080 192,444 350,810 350,812 0,3 -254,5 -565,5 h -565 z"
         id="path7" />
      <path class="seg8"
         d="m 3400,5889 v -811 l 43,6 c 23,3 135,9 248,12 l 206,7 346,781 c 191,429 349,789 353,799 6,16 -27,17 -595,17 h -601 z"
         id="path8" />
      <path class="seg9"
         d="m 4850,5867 v -833 l 90,-27 c 49,-15 131,-45 181,-68 51,-22 96,-36 100,-32 4,4 134,301 289,658 507,1168 463,1063 453,1098 l -9,32 -552,3 -552,2 z"
         id="path9" />
      <path class="seg10"
         d="m 4373,5873 -341,-768 257,-7 c 141,-3 295,-12 344,-20 l 87,-15 v 789 c 0,433 -2,788 -4,788 -1,0 -156,-345 -343,-767 z"
         id="path10" />
      <path class="seg11"
         d="m 3148,6217 c -64,-149 -239,-553 -389,-897 -149,-344 -275,-635 -280,-647 -6,-16 15,-3 68,41 157,132 382,246 606,307 l 117,33 v 718 c 0,395 -1,718 -2,718 -2,0 -56,-123 -120,-273 z"
         id="path11" />
      <path class="seg12"
         d="m 5668,5620 c -180,-415 -330,-762 -333,-771 -4,-11 14,-29 62,-61 81,-56 187,-150 268,-238 32,-36 62,-66 66,-68 12,-5 125,236 159,338 37,111 54,183 82,335 18,98 21,164 25,615 2,278 3,528 1,555 -3,49 -13,27 -330,-705 z"
         id="path12" />
      <path class="seg13"
         d="m 3542,4970 c -41,-5 -89,-11 -108,-15 l -34,-6 v -482 l 1,-482 219,495 c 121,272 220,496 220,497 0,6 -227,0 -298,-7 z"
         id="path13" />
      <path class="seg14"
         d="m 3712,4384 c -145,-328 -261,-599 -257,-602 15,-15 151,-20 557,-21 338,-1 464,2 555,14 65,9 126,18 136,21 16,5 17,41 17,574 v 568 l -67,11 c -136,22 -262,31 -468,31 h -210 z"
         id="path14" />
      <path class="seg15"
         d="m 3155,4895 c -172,-51 -354,-141 -487,-240 -88,-66 -252,-230 -270,-271 -9,-20 -6,-30 28,-71 108,-135 274,-268 446,-358 90,-47 282,-119 371,-139 l 27,-6 v 555 c 0,522 -1,555 -17,554 -10,0 -54,-11 -98,-24 z"
         id="path15" />
      <path class="seg16"
         d="m 4850,4473 v -428 l 131,300 c 72,165 143,330 159,368 l 29,67 -57,29 c -62,31 -225,91 -248,91 -12,0 -14,-65 -14,-427 z"
         id="path16" />
      <path class="seg17"
         d="m 2035,4370 c 0,-214 2,-387 3,-385 2,2 25,52 51,112 26,59 64,137 85,173 50,85 52,109 15,169 -36,60 -125,247 -134,284 -4,15 -10,29 -14,31 -3,2 -6,-171 -6,-384 z"
         id="path17" />
      <path class="seg18"
         d="m 5993,4743 c -20,-62 -92,-214 -134,-287 -27,-48 -49,-88 -49,-90 0,-1 22,-41 50,-87 27,-46 69,-129 92,-184 23,-55 44,-103 47,-107 3,-4 6,168 6,383 0,214 -1,389 -3,389 -1,0 -5,-8 -9,-17 z"
         id="path18" />
      <path class="seg19"
         d="m 5258,4673 c -138,-308 -354,-819 -348,-821 15,-6 173,58 267,107 166,88 331,221 437,353 29,36 36,52 31,69 -11,32 -228,246 -303,297 l -62,44 z"
         id="path19" />
      <path class="seg20"
         d="m 2302,4247 c -5,-7 -33,-59 -62,-116 -95,-190 -165,-445 -190,-690 -5,-57 -10,-314 -10,-572 v -469 h 329 329 l 281,633 c 154,349 281,639 281,644 0,6 -17,14 -37,18 -77,14 -274,85 -375,134 -181,88 -374,236 -488,372 -35,42 -51,55 -58,46 z"
         id="path20" />
      <path class="seg21"
         d="m 5695,4218 c -51,-69 -205,-206 -313,-279 -128,-86 -261,-150 -417,-201 l -120,-39 3,-900 2,-899 216,2 215,3 351,809 351,809 -27,136 c -33,169 -89,338 -156,473 -68,136 -68,136 -105,86 z"
         id="path21" />
      <path class="seg22"
         d="m 4590,3652 c -190,-28 -1049,-25 -1167,4 l -23,6 v -881 -881 l 261,2 261,3 380,874 c 208,480 378,876 376,880 -2,3 -41,0 -88,-7 z"
         id="path22" />
      <path class="seg23"
         d="m 4663,3303 c -28,-65 -175,-405 -327,-756 -152,-351 -276,-640 -276,-643 0,-2 149,-4 330,-4 h 330 v 760 c 0,418 -2,760 -3,760 -2,0 -27,-53 -54,-117 z"
         id="path23" />
      <path class="seg24"
         d="m 3055,2903 c -115,-261 -211,-482 -213,-489 -3,-12 35,-14 212,-14 h 216 v 490 c 0,270 -1,490 -2,490 -2,0 -97,-215 -213,-477 z"
         id="path24" />
      <path class="seg25"
         d="m 5914,3054 c -45,-104 -175,-404 -288,-666 -113,-262 -206,-479 -206,-482 0,-4 121,-6 269,-6 h 269 l 18,88 c 16,75 18,153 21,587 2,275 3,538 1,584 l -3,83 z"
         id="path25" />
      <path class="seg26"
         d="m 2043,2176 c 8,-128 35,-270 77,-401 36,-114 140,-339 151,-328 7,8 369,820 369,828 0,3 -136,5 -302,5 h -301 z"
         id="path26" />
      <path class="seg27"
         d="m 2761,2238 c -10,-24 -78,-178 -151,-343 -73,-165 -161,-365 -196,-443 l -64,-144 29,-41 c 172,-250 510,-502 819,-611 l 72,-26 v 825 825 h -245 -246 z"
         id="path27" />
      <path class="seg28"
         d="m 3401,1238 c 0,-293 4,-524 8,-513 5,11 106,245 226,520 120,275 220,506 222,513 4,9 -45,12 -226,12 h -231 z"
         id="path28" />
      <path class="seg29"
         d="m 3981,1728 c -148,-343 -318,-738 -396,-917 -73,-168 -94,-226 -84,-232 27,-17 199,-24 554,-23 376,0 449,6 610,46 l 50,13 3,578 2,577 h -360 -361 z"
         id="path29" />
      <path class="seg30"
         d="m 4850,1348 c 0,-242 4,-417 9,-408 9,16 337,768 352,808 l 9,22 h -185 -185 z"
         id="path30" />
      <path class="seg31"
         d="M 5340,1728 C 5190,1386 4891,685 4895,682 c 9,-10 177,73 279,137 332,208 595,529 720,879 l 26,72 h -281 -280 z"
         id="path31" />
      <path class="seg32"
         d="M 2040,1270 V 925 l 83,185 84,184 -45,76 c -25,41 -62,113 -83,160 l -39,85 z"
         id="path32" />
      <path class="seg33"
         d="m 5992,1600 c -5,-31 -111,-230 -173,-325 C 5624,976 5326,724 5007,585 l -68,-30 527,-3 c 290,-1 529,-1 531,1 2,2 2,242 0,533 -1,291 -3,522 -5,514 z"
         id="path33" />
      <path class="seg34"
         d="M 2268,1123 C 2257,1097 2201,969 2144,841 2087,712 2040,593 2040,578 v -28 h 533 532 l -70,33 c -265,123 -486,286 -661,490 l -85,98 z"
         id="path34" />
    </g>
  </g>
</svg>
